<?xml version="1.0" encoding="UTF-8"?>
<svg id="Layer_1" xmlns="http://www.w3.org/2000/svg" version="1.1" viewBox="0 0 512 512">
  <!-- Generator: Adobe Illustrator 29.5.0, SVG Export Plug-In . SVG Version: 2.1.0 Build 137)  -->
  <defs>
    <style>
      .st0 {
        fill: #fff;
      }
    </style>
  </defs>
  <path class="st0" d="M496,109.5c-18.01,7.82-37.06,12.98-56.55,15.3,20.49-12,35.89-31.05,43.33-53.6-19.37,11.33-40.52,19.27-62.56,23.5-18.75-19.65-44.75-30.75-71.91-30.7-54.42,0-98.46,43.4-98.46,96.9-.04,7.44.81,14.86,2.54,22.1-78.91-3.7-152.6-40.47-203-101.3-8.74,14.74-13.37,31.56-13.39,48.7,0,33.6,17.53,63.3,44,80.7-15.68-.37-31.04-4.52-44.78-12.1v1.2c0,47,34,86.1,79,95-8.46,2.26-17.18,3.4-25.94,3.4-6.21.01-12.41-.59-18.51-1.8,12.51,38.5,48.92,66.5,92.05,67.3-35.05,27.01-78.07,41.61-122.32,41.5-7.85-.01-15.7-.48-23.5-1.4,45.01,28.74,97.33,43.95,150.74,43.8,181.36,0,280.44-147.7,280.44-275.8,0-4.2-.11-8.4-.31-12.5,19.23-13.68,35.87-30.68,49.13-50.2Z"/>
</svg>