<?xml version="1.0" encoding="UTF-8"?>
<svg id="Layer_1" xmlns="http://www.w3.org/2000/svg" version="1.1" viewBox="0 0 512 512">
  <!-- Generator: Adobe Illustrator 29.5.0, SVG Export Plug-In . SVG Version: 2.1.0 Build 137)  -->
  <defs>
    <style>
      .st0 {
        fill: #fff;
      }
    </style>
  </defs>
  <path class="st0" d="M508.64,148.79c0-45-33.1-81.2-74-81.2-55.4-2.59-111.9-3.59-169.64-3.59h-18c-57.6,0-114.2,1-169.6,3.6C36.6,67.6,3.5,104,3.5,149,1,184.59-.06,220.19,0,255.79c-.1,35.6,1.03,71.23,3.4,106.9,0,45,33.1,81.5,73.9,81.5,58.2,2.7,117.9,3.9,178.6,3.8,60.8.2,120.33-1.07,178.6-3.8,40.9,0,74-36.5,74-81.5,2.4-35.7,3.5-71.3,3.4-107,.23-35.6-.86-71.23-3.26-106.9h0ZM207,353.89v-196.5l145,98.2-145,98.3Z"/>
</svg>