<?xml version="1.0" encoding="UTF-8"?>
<svg id="Layer_1" data-name="Layer 1" xmlns="http://www.w3.org/2000/svg" viewBox="0 0 117.09 99.52">
  <defs>
    <style>
      .cls-1 {
        fill: #f9f7f7;
      }

      .cls-2 {
        fill: #fff;
      }

      .cls-3 {
        fill: #e5e4e4;
      }

      .cls-4 {
        fill: #44382e;
      }
    </style>
  </defs>
  <g>
    <path class="cls-4" d="M7.94,7.07v80.87l.99,2.48c1.59-.55,2.09.92,2.48.99,3.81.67,9.66-.23,13.89,0,11.85.63,26.62,3.89,38.7,2.98,8.76-.66,18.92-2.47,27.78-2.98,3.94-.23,9.36.63,12.9,0,.36-.06.58-.86.99-.99,1.1-.35,2.45.39,3.47-1.49-.67-26.91.9-53.99,0-80.87,1.63.26,4.05-.39,5.46,0,.17.05,2.48,2.31,2.48,2.48v82.36c0,.21-1.54.98-.99,2.48-1.59-.55-2.09.92-2.48.99-3.07.54-7.53-.23-10.91,0-18.81,1.27-37.73,3.85-57.55,2.98-10.11-.44-21.66-2.23-31.75-2.98-3.1-.23-7.1.5-9.92,0-.39-.07-.89-1.54-2.48-.99l-.99-2.48V10.54c2.35-2.85,4.01-4.13,7.94-3.47Z"/>
    <path class="cls-3" d="M109.15,8.06c.9,26.88-.67,53.96,0,80.87-1.02,1.88-2.37,1.14-3.47,1.49-.41.13-.63.93-.99.99-3.54.63-8.96-.23-12.9,0-8.87.51-19.02,2.32-27.78,2.98-12.08.91-26.85-2.34-38.7-2.98-4.23-.23-10.08.67-13.89,0-.39-.07-.89-1.54-2.48-.99l-.99-2.48V7.07c1.98-.01.48-4.45.99-4.96,3.1.17,6.33-.24,9.43,0,6.17.48,16.18,2.67,22.33,1.98v45.64c2.91.28,3.49-3.83,6.45-2.98,1.08.31,2.33,3.69,4.47,2.98V5.08c1.77.83,6.43-1.41,7.94,1.49v81.86c1.76-.16,3.75.23,5.46,0,8.77-1.17,18.01-4.41,26.79-5.95,2.63-.46,5.44.32,7.44-2.48V2.6c0-.21,1.54-.98.99-2.48,1.91-.69,2.66,1.77,3.47,1.98,1.09.29,2.89-.3,3.97,0,2.01.55,1.43,4.17,1.49,5.95Z"/>
    <path class="cls-4" d="M51.6,5.08v44.65c-2.14.72-3.39-2.67-4.47-2.98-2.96-.85-3.54,3.26-6.45,2.98V4.09c6.08-.68,5.07-1.76,10.91.99Z"/>
  </g>
  <polygon class="cls-2" points="76.93 17.84 99.59 .81 58.69 5.6 76.93 17.84"/>
  <polygon class="cls-1" points="58.19 5.93 58.19 88.43 68.16 87.75 98.51 81.2 99.83 79.93 100.22 .12 57.3 4.95 58.19 5.93"/>
</svg>