<?xml version="1.0" encoding="UTF-8"?>
<svg id="Layer_1" data-name="Layer 1" xmlns="http://www.w3.org/2000/svg" viewBox="0 0 407.4 451.06">
  <defs>
    <style>
      .cls-1 {
        letter-spacing: .01em;
      }

      .cls-2 {
        letter-spacing: -.06em;
      }

      .cls-3, .cls-4, .cls-5, .cls-6 {
        fill: #fff;
      }

      .cls-7 {
        fill: none;
        stroke: #fff;
        stroke-miterlimit: 10;
      }

      .cls-8 {
        fill: #231f20;
      }

      .cls-4 {
        font-size: 47px;
      }

      .cls-4, .cls-6 {
        font-family: Blanch-Caps, Blanch;
      }

      .cls-5 {
        font-family: BlendaScript, 'Blenda Script';
        font-size: 38.08px;
      }

      .cls-9, .cls-10 {
        fill: #333;
      }

      .cls-11 {
        fill: #f93;
      }

      .cls-12 {
        letter-spacing: -.03em;
      }

      .cls-10 {
        font-family: ChunkFive-Roman, ChunkFive;
        font-size: 15px;
      }

      .cls-6 {
        font-size: 40.04px;
      }
    </style>
  </defs>
  <path class="cls-11" d="M222.44,22.15c-2.58,11-14.2,17.68-14.2,17.68,0,0-7.45-11.15-4.88-22.15,2.58-11,14.2-17.68,14.2-17.68,0,0,7.45,11.15,4.88,22.15Z"/>
  <g>
    <path class="cls-11" d="M198.28,28.55c7.99,7.99,7.53,21.39,7.53,21.39,0,0-13.4.45-21.39-7.54-7.99-7.98-7.54-21.39-7.54-21.39,0,0,13.4-.45,21.39,7.54Z"/>
    <path class="cls-11" d="M226.5,55.35c-7.99,7.99-21.39,7.54-21.39,7.54,0,0-.45-13.4,7.54-21.39,7.99-7.99,21.38-7.54,21.38-7.54,0,0,.45,13.4-7.53,21.39Z"/>
  </g>
  <g>
    <path class="cls-11" d="M198.28,56.06c7.99,7.99,7.53,21.39,7.53,21.39,0,0-13.4.45-21.39-7.54-7.99-7.99-7.54-21.39-7.54-21.39,0,0,13.4-.45,21.39,7.54Z"/>
    <path class="cls-11" d="M226.5,82.86c-7.99,7.99-21.39,7.54-21.39,7.54,0,0-.45-13.4,7.54-21.39,7.99-7.99,21.38-7.54,21.38-7.54,0,0,.45,13.4-7.53,21.39Z"/>
  </g>
  <g>
    <path class="cls-11" d="M198.28,83.57c7.99,7.99,7.53,21.39,7.53,21.39,0,0-13.4.45-21.39-7.54-7.99-7.99-7.54-21.39-7.54-21.39,0,0,13.4-.45,21.39,7.54Z"/>
    <path class="cls-11" d="M226.5,110.37c-7.99,7.99-21.39,7.54-21.39,7.54,0,0-.45-13.4,7.54-21.39,7.99-7.99,21.38-7.54,21.38-7.54,0,0,.45,13.4-7.53,21.39Z"/>
  </g>
  <g>
    <path class="cls-11" d="M198.28,111.08c7.99,7.99,7.53,21.39,7.53,21.39,0,0-13.4.45-21.39-7.54-7.99-7.99-7.54-21.39-7.54-21.39,0,0,13.4-.45,21.39,7.54Z"/>
    <path class="cls-11" d="M226.5,137.88c-7.99,7.99-21.39,7.54-21.39,7.54,0,0-.45-13.4,7.54-21.39,7.99-7.99,21.38-7.54,21.38-7.54,0,0,.45,13.4-7.53,21.39Z"/>
  </g>
  <path class="cls-11" d="M226.5,165.39c-7.99,7.99-21.39,7.54-21.39,7.54,0,0-.45-13.41,7.54-21.39,7.99-7.99,21.38-7.54,21.38-7.54,0,0,.45,13.4-7.53,21.39Z"/>
  <path class="cls-11" d="M161.53,64.79c-2.14,9.16-11.83,14.72-11.83,14.72,0,0-6.2-9.29-4.06-18.45,2.15-9.16,11.83-14.72,11.83-14.72,0,0,6.2,9.29,4.05,18.45Z"/>
  <path class="cls-11" d="M141.41,70.11c6.66,6.66,6.28,17.81,6.28,17.81,0,0-11.16.38-17.81-6.28-6.65-6.65-6.28-17.81-6.28-17.81,0,0,11.16-.38,17.81,6.28Z"/>
  <path class="cls-11" d="M164.92,92.44c-6.65,6.65-17.82,6.28-17.82,6.28,0,0-.37-11.16,6.28-17.81,6.66-6.65,17.81-6.28,17.81-6.28,0,0,.37,11.16-6.28,17.81Z"/>
  <path class="cls-11" d="M141.41,93.03c6.66,6.65,6.28,17.81,6.28,17.81,0,0-11.16.37-17.81-6.28-6.65-6.65-6.28-17.81-6.28-17.81,0,0,11.16-.38,17.81,6.28Z"/>
  <path class="cls-11" d="M164.92,115.35c-6.65,6.65-17.82,6.28-17.82,6.28,0,0-.37-11.16,6.28-17.81,6.66-6.65,17.81-6.28,17.81-6.28,0,0,.37,11.16-6.28,17.81Z"/>
  <path class="cls-11" d="M141.41,115.94c6.66,6.65,6.28,17.81,6.28,17.81,0,0-11.16.37-17.81-6.28-6.65-6.65-6.28-17.81-6.28-17.81,0,0,11.16-.38,17.81,6.27Z"/>
  <path class="cls-8" d="M164.92,161.17c-6.65,6.65-17.82,6.28-17.82,6.28,0,0-.37-11.16,6.28-17.81,6.66-6.65,17.81-6.28,17.81-6.28,0,0,.37,11.16-6.28,17.81Z"/>
  <path class="cls-11" d="M111.05,99.86c-1.73,7.38-9.53,11.87-9.53,11.87,0,0-5-7.48-3.27-14.87,1.73-7.39,9.53-11.87,9.53-11.87,0,0,5,7.49,3.27,14.87Z"/>
  <path class="cls-11" d="M94.83,104.15c5.36,5.36,5.06,14.36,5.06,14.36,0,0-9,.3-14.36-5.06-5.36-5.36-5.06-14.36-5.06-14.36,0,0,9-.3,14.36,5.06Z"/>
  <path class="cls-11" d="M113.78,122.14c-5.36,5.36-14.36,5.06-14.36,5.06,0,0-.3-9,5.06-14.36,5.36-5.36,14.36-5.06,14.36-5.06,0,0,.3,8.99-5.06,14.36Z"/>
  <path class="cls-11" d="M94.83,122.62c5.36,5.36,5.06,14.36,5.06,14.36,0,0-9,.3-14.36-5.06-5.36-5.36-5.06-14.36-5.06-14.36,0,0,9-.3,14.36,5.06Z"/>
  <path class="cls-11" d="M113.78,140.62c-5.36,5.36-14.36,5.06-14.36,5.06,0,0-.3-8.99,5.06-14.36,5.36-5.36,14.36-5.06,14.36-5.06,0,0,.3,9-5.06,14.36Z"/>
  <path class="cls-11" d="M94.83,141.09c5.36,5.36,5.06,14.36,5.06,14.36,0,0-9,.3-14.36-5.06-5.36-5.36-5.06-14.36-5.06-14.36,0,0,9-.3,14.36,5.06Z"/>
  <path class="cls-11" d="M113.78,159.08c-5.36,5.36-14.36,5.06-14.36,5.06,0,0-.3-9,5.06-14.36,5.36-5.36,14.36-5.06,14.36-5.06,0,0,.3,9-5.06,14.36Z"/>
  <path class="cls-11" d="M94.83,159.56c5.36,5.36,5.06,14.36,5.06,14.36,0,0-9,.3-14.36-5.06-5.36-5.36-5.06-14.36-5.06-14.36,0,0,9-.3,14.36,5.06Z"/>
  <path class="cls-11" d="M273.04,85.89c-1.93,8.25-10.65,13.26-10.65,13.26,0,0-5.58-8.36-3.65-16.61,1.93-8.24,10.65-13.26,10.65-13.26,0,0,5.58,8.36,3.65,16.61Z"/>
  <path class="cls-11" d="M254.91,90.69c6,5.99,5.65,16.04,5.65,16.04,0,0-10.05.34-16.04-5.65-5.99-5.99-5.65-16.04-5.65-16.04,0,0,10.05-.34,16.04,5.65Z"/>
  <path class="cls-11" d="M276.09,110.79c-6,5.99-16.05,5.65-16.05,5.65,0,0-.33-10.05,5.66-16.04,5.99-5.99,16.04-5.66,16.04-5.66,0,0,.34,10.05-5.65,16.04Z"/>
  <path class="cls-11" d="M254.91,111.32c6,5.99,5.65,16.04,5.65,16.04,0,0-10.05.34-16.04-5.65-5.99-5.99-5.65-16.04-5.65-16.04,0,0,10.05-.34,16.04,5.65Z"/>
  <path class="cls-11" d="M276.09,131.43c-6,5.99-16.05,5.65-16.05,5.65,0,0-.33-10.05,5.66-16.04,5.99-5.99,16.04-5.65,16.04-5.65,0,0,.34,10.05-5.65,16.04Z"/>
  <path class="cls-11" d="M254.91,131.96c6,5.99,5.65,16.04,5.65,16.04,0,0-10.05.33-16.04-5.66-5.99-5.99-5.65-16.04-5.65-16.04,0,0,10.05-.34,16.04,5.65Z"/>
  <path class="cls-11" d="M276.09,152.06c-6,5.99-16.05,5.65-16.05,5.65,0,0-.33-10.05,5.66-16.04,5.99-5.99,16.04-5.66,16.04-5.66,0,0,.34,10.05-5.65,16.04Z"/>
  <path class="cls-11" d="M254.91,152.59c6,5.99,5.65,16.04,5.65,16.04,0,0-10.05.34-16.04-5.66-5.99-5.99-5.65-16.04-5.65-16.04,0,0,10.05-.34,16.04,5.65Z"/>
  <path class="cls-11" d="M317.77,122.92c-1.56,6.65-8.59,10.7-8.59,10.7,0,0-4.5-6.74-2.94-13.4,1.56-6.65,8.59-10.69,8.59-10.69,0,0,4.5,6.74,2.95,13.39Z"/>
  <path class="cls-11" d="M303.16,126.8c4.83,4.83,4.56,12.93,4.56,12.93,0,0-8.1.27-12.94-4.56-4.83-4.83-4.56-12.94-4.56-12.94,0,0,8.11-.27,12.94,4.56Z"/>
  <path class="cls-11" d="M320.22,143c-4.83,4.83-12.94,4.56-12.94,4.56,0,0-.26-8.1,4.56-12.93,4.83-4.83,12.94-4.56,12.94-4.56,0,0,.27,8.11-4.56,12.94Z"/>
  <path class="cls-11" d="M303.16,143.43c4.83,4.83,4.56,12.94,4.56,12.94,0,0-8.1.27-12.94-4.56-4.83-4.83-4.56-12.94-4.56-12.94,0,0,8.11-.27,12.94,4.56Z"/>
  <path class="cls-11" d="M320.22,159.64c-4.83,4.83-12.94,4.56-12.94,4.56,0,0-.26-8.1,4.56-12.93,4.83-4.83,12.94-4.56,12.94-4.56,0,0,.27,8.1-4.56,12.93Z"/>
  <path class="cls-11" d="M323.04,172.06c1.88-4.27,1.74-8.71,1.74-8.71,0,0-8.11-.27-12.94,4.55-.85.86-1.54,1.82-2.11,2.82,4.51.26,8.94.71,13.31,1.34Z"/>
  <path class="cls-9" d="M316.34,329.72c-15.86,0-25.43-6.12-28.42-18.18-.11-.45-.2-.91-.26-1.38-1.07-3.34-1.75-6.72-2.19-9.69-25.65,3.04-51.54,10.85-76.65,18.41-28.82,8.68-58.62,17.66-88.79,19.82-4.61.33-9.2.5-13.64.5-6.54,0-12.9-.36-19.14-1.08v16.69l116.64,96.25,116.63-96.25v-25.22c-1.37.07-2.77.13-4.2.13Z"/>
  <path class="cls-3" d="M285.9,181.76c-57.93,4.16-114.08,33.3-172.01,37.45-21.2,1.52-42.66-.3-64.51-7.92,2.59,36.06,5.17,72.11,7.76,108.17,21.87,7.62,43.3,9.45,64.51,7.92,57.93-4.16,114.08-33.3,172.01-37.45,21.21-1.52,42.66.3,64.52,7.92-2.59-36.06-5.17-72.11-7.76-108.17-21.87-7.62-43.31-9.45-64.52-7.92h0Z"/>
  <g>
    <path class="cls-9" d="M91.95,267.5c-2.24-.18-3.36-.29-5.61-.56-.4-3.92-.61-5.88-1.01-9.81-1.28-.15-1.93-.23-3.22-.41,1.14,11.08,2.28,22.17,3.42,33.25,1.27.18,1.91.26,3.18.41.42,4.08.63,6.11,1.05,10.19-5.69-.67-8.55-1.14-14.3-2.39-.42-4.08-.63-6.11-1.05-10.19,1.27.28,1.9.41,3.16.65-1.14-11.08-2.28-22.17-3.42-33.25-1.33-.26-1.99-.4-3.32-.69.4,3.92.61,5.88,1.01,9.81-2.27-.5-3.41-.77-5.69-1.36-.82-7.97-1.23-11.95-2.05-19.92,10.42,2.71,15.57,3.52,25.79,4.34.82,7.97,1.23,11.95,2.05,19.92Z"/>
    <path class="cls-9" d="M103.74,248.11c8.76-.03,11.15,6.71,12.05,15.44.62,5.97-1.28,10.34-4.31,11.36,2.68.69,5.48,5.14,6.05,10.66.34,3.29.76,5.2,1.44,5.16.56-.04.77-.98.61-2.51-.1-1.01-.16-1.52-.26-2.53,1.01-.07,1.51-.1,2.51-.18.17,1.69.26,2.53.43,4.21.66,6.36-.04,12.4-4.21,12.62-4.92.25-7.85-5.06-8.77-14.02-.72-6.97-1.3-8.62-4.67-8.66.49,4.75.73,7.13,1.22,11.88.92,0,1.38.01,2.3,0,.42,4.05.63,6.07,1.04,10.11-4.88.01-7.33-.06-12.24-.41-.42-4.05-.63-6.07-1.04-10.11.85.06,1.28.09,2.13.14-1.15-11.13-2.29-22.27-3.44-33.4-.85-.05-1.28-.08-2.13-.14-.41-4.01-.62-6.02-1.03-10.03,4.95.35,7.41.43,12.32.41ZM103.73,271.08c.68,0,1.02,0,1.7,0,2.19,0,3.4-2.18,2.98-6.24-.47-4.52-1.95-6.78-4.14-6.78-.76,0-1.13,0-1.89,0,.54,5.21.8,7.81,1.34,13.02Z"/>
    <path class="cls-9" d="M131.62,245.96c.42,4.04.62,6.07,1.04,10.11-.92.13-1.38.2-2.31.32,1.14,11.08,2.28,22.17,3.42,33.25.92-.12,1.39-.19,2.31-.32.42,4.08.63,6.11,1.05,10.19-4.94.71-7.42,1.01-12.39,1.44-.42-4.08-.63-6.11-1.05-10.19.94-.08,1.41-.13,2.36-.22-1.14-11.08-2.28-22.17-3.42-33.25-.94.09-1.41.14-2.36.22-.42-4.04-.62-6.07-1.04-10.11,4.97-.43,7.45-.73,12.39-1.44Z"/>
    <path class="cls-9" d="M137.97,289.28c.86-.13,1.29-.2,2.16-.34-1.16-11.24-2.32-22.47-3.47-33.71-.86.14-1.29.21-2.16.34-.41-3.95-.61-5.93-1.02-9.88,5.55-.84,8.31-1.35,13.83-2.48,6.14-1.26,9.54,2.77,10.4,11.12.66,6.43.14,9.78-2.39,12.7,2.82.94,5.45,4.48,6.21,11.91,1.11,10.8-1.3,16.31-8.44,17.78-5.62,1.16-8.44,1.67-14.09,2.53-.41-3.98-.62-5.98-1.03-9.96ZM145.54,265.6c.9-.17,1.36-.26,2.26-.44,1.96-.39,2.29-2.73,1.91-6.41-.36-3.52-1.61-5.38-3.02-5.1-.93.19-1.4.28-2.33.45.47,4.6.71,6.89,1.18,11.49ZM150.77,287.01c1.55-.31,2.74-3.07,2.32-7.21-.4-3.91-1.77-6.51-3.8-6.1-1.14.23-1.71.34-2.85.56.55,5.33.82,8,1.37,13.33,1.19-.23,1.78-.34,2.96-.58Z"/>
    <path class="cls-9" d="M170.24,237.75c.41,3.95.61,5.93,1.02,9.88-.79.21-1.19.32-1.98.52.68,6.62,1.02,9.93,1.7,16.55,1.27,12.33,2.86,14.6,5.21,13.96,2.24-.6,3.52-2.85,2.16-16.03-.67-6.5-1-9.75-1.67-16.24-.79.22-1.19.33-1.98.54-.42-4.04-.62-6.07-1.04-10.11,4.35-1.18,6.52-1.8,10.86-3.05.41,3.95.61,5.93,1.02,9.88-.79.23-1.19.34-1.98.57.77,7.45,1.15,11.17,1.92,18.62,1.25,8.46.84,27.78-7.82,29.28-9.59,1.67-12.48-13.68-14.08-23.03-.78-7.57-1.17-11.35-1.95-18.92-.83.2-1.24.3-2.06.5-.41-3.98-.62-5.97-1.03-9.96,4.69-1.12,7.03-1.72,11.7-2.96Z"/>
    <path class="cls-9" d="M197.57,229.97c.42,4.04.62,6.07,1.04,10.11-.78.23-1.17.34-1.94.57,1.14,11.08,2.28,22.17,3.42,33.25,1.89-.56,2.84-.84,4.73-1.4-.4-3.89-.6-5.84-1-9.73,2.46-.73,3.69-1.09,6.16-1.81.82,7.97,1.23,11.95,2.05,19.92-8.21,2.41-12.31,3.66-20.52,6.03-.42-4.08-.63-6.11-1.05-10.19.81-.23,1.21-.35,2.02-.58-1.14-11.08-2.28-22.17-3.42-33.25-.81.23-1.21.35-2.02.58-.42-4.04-.62-6.07-1.04-10.11,4.63-1.34,6.95-2.02,11.58-3.39Z"/>
    <path class="cls-9" d="M227.88,276.32c-.41-4.01-.62-6.02-1.03-10.04,1.39-.39,2.09-.58,3.49-.96-.52-2-.78-3-1.31-5-3.01.83-4.52,1.25-7.52,2.11-.09,2.17-.14,3.26-.23,5.43,1.14-.33,1.72-.49,2.86-.81.41,4.01.62,6.02,1.03,10.04-4.67,1.32-7,2-11.66,3.37-.41-4.01-.62-6.02-1.03-10.04,1-.29,1.5-.44,2.49-.73.49-11.69.99-23.38,1.49-35.07-.6.17-.9.26-1.5.43-.41-3.95-.61-5.93-1.02-9.88,5.63-1.63,8.45-2.43,14.09-3.95,3.66,13.93,7.33,27.87,10.99,41.8,1.03-.26,1.55-.39,2.58-.65.41,4.01.62,6.02,1.03,10.04-5.9,1.48-8.85,2.27-14.74,3.92ZM226.72,251.51c-1.65-6.35-2.48-9.53-4.13-15.87-.27,6.89-.41,10.33-.68,17.22,1.92-.55,2.88-.82,4.81-1.35Z"/>
    <path class="cls-9" d="M265.06,233.28c-2.18.36-3.27.56-5.45.97-.4-3.92-.61-5.88-1.01-9.81-1.24.23-1.87.35-3.11.6,1.14,11.08,2.28,22.17,3.42,33.25,1.23-.24,1.84-.36,3.07-.6.42,4.08.63,6.11,1.05,10.19-5.51,1.04-8.26,1.63-13.75,2.91-.42-4.08-.63-6.11-1.05-10.19,1.21-.28,1.81-.42,3.03-.69-1.14-11.08-2.28-22.17-3.42-33.25-1.27.28-1.9.43-3.17.73.4,3.92.61,5.88,1.01,9.81-2.17.51-3.25.77-5.42,1.3-.82-7.97-1.23-11.95-2.05-19.92,9.88-2.45,14.84-3.55,24.8-5.22.82,7.97,1.23,11.95,2.05,19.92Z"/>
    <path class="cls-9" d="M276.87,211.45c.42,4.04.62,6.07,1.04,10.11-.93.1-1.39.15-2.32.26,1.14,11.08,2.28,22.17,3.43,33.25.93-.11,1.39-.16,2.32-.26.42,4.08.63,6.11,1.05,10.19-4.96.53-7.43.87-12.37,1.66-.42-4.08-.63-6.11-1.05-10.19.94-.15,1.4-.22,2.34-.37-1.14-11.08-2.28-22.17-3.42-33.25-.94.14-1.41.22-2.34.37-.42-4.04-.62-6.07-1.04-10.11,4.93-.79,7.41-1.13,12.37-1.66Z"/>
    <path class="cls-9" d="M281.09,237.81c-.5-8.42-.56-28.32,10.29-28.83,10.75-.5,16.07,18.86,16.51,28.61.37,8.41,1.42,27.63-10.43,27.77-11.5.13-15.79-17.99-16.36-27.55ZM298.42,237.4c-.95-9.27-3.01-16.66-5.87-16.62-2.27.03-3.19,6.83-2.21,16.33,1.03,10.04,3.45,16.3,5.86,16.23,2.37-.07,3.19-6.43,2.21-15.93Z"/>
    <path class="cls-9" d="M334.49,224.47c1.5,14.56,3,29.11,4.5,43.67-3.33-.8-4.99-1.15-8.3-1.75-4.24-10.22-8.51-20.43-12.79-30.64.8,7.72,1.19,11.58,1.99,19.31,1.18.14,1.77.21,2.95.37.41,3.95.61,5.93,1.02,9.88-4.7-.63-7.04-.85-11.71-1.12-.41-3.95-.61-5.93-1.02-9.88.9.05,1.35.08,2.24.15-1.16-11.26-2.32-22.52-3.48-33.78-.88-.06-1.32-.09-2.21-.14-.41-3.95-.61-5.93-1.02-9.88,4.36.26,6.55.46,10.95,1.03,4.13,9.87,8.22,19.75,12.31,29.64-.75-7.29-1.13-10.94-1.88-18.23-1.05-.2-1.57-.3-2.62-.49-.41-3.95-.61-5.93-1.02-9.88,4.63.82,6.96,1.32,11.63,2.53.41,3.95.61,5.93,1.02,9.88-1.02-.27-1.54-.39-2.56-.64Z"/>
  </g>
  <path class="cls-11" d="M297.42,170.46c.69,0,1.4-.04,2.08-.04,2.73,0,5.42.07,8.09.19-.29-2.78-1.26-7.36-4.43-10.54-4.83-4.83-12.94-4.56-12.94-4.56,0,0-.27,8.11,4.56,12.94.81.81,1.71,1.46,2.65,2.01Z"/>
  <path class="cls-11" d="M256.4,174.99c-.45-.61-.93-1.21-1.49-1.76-5.99-5.99-16.04-5.65-16.04-5.65,0,0-.18,5.51,2.16,10.8,5.11-1.24,10.23-2.37,15.37-3.38Z"/>
  <path class="cls-11" d="M276.92,171.77c5.11-6.05,4.82-15.12,4.82-15.12,0,0-10.05-.34-16.04,5.65-3.54,3.54-4.86,8.48-5.36,11.94,5.51-1.01,11.04-1.84,16.59-2.48Z"/>
  <path class="cls-11" d="M89.88,180.98c2.68,0,5.18.19,7.5.54-.66-1.24-1.49-2.44-2.55-3.49-5.36-5.36-14.36-5.06-14.36-5.06,0,0-.13,4.1,1.42,8.41,2.54-.22,5.21-.39,7.98-.39Z"/>
  <path class="cls-9" d="M157.67,141.14c-22.01,0-39.85,17.84-39.85,39.85s17.84,39.85,39.85,39.85,39.85-17.84,39.85-39.85-17.84-39.85-39.85-39.85Z"/>
  <path class="cls-11" d="M205.28,175.76h-2.03c-1.03,0-1.86.75-1.86,1.66.1,1.16.15,2.33.15,3.52s-.06,2.36-.15,3.52v4.98c1.92-.58,3.84-1.15,5.77-1.73v-10.29c0-.92-.84-1.67-1.87-1.67Z"/>
  <path class="cls-11" d="M198.28,138.59c-7.99-7.98-21.39-7.53-21.39-7.53,0,0-.18,5.4,1.73,11.38,6.91,3.77,12.7,9.35,16.73,16.09,5.61,1.61,10.46,1.45,10.46,1.45,0,0,.45-13.4-7.53-21.39Z"/>
  <path class="cls-11" d="M157.71,137.12c2.6,0,5.15.24,7.63.68,6.2-6.69,5.86-17.35,5.86-17.35,0,0-11.16-.38-17.81,6.28-3.38,3.37-4.94,7.91-5.66,11.56,3.21-.75,6.55-1.16,9.99-1.16Z"/>
  <path class="cls-11" d="M142.36,139.9c-.3-.36-.61-.71-.94-1.05-6.65-6.65-17.81-6.28-17.81-6.28,0,0-.29,9.25,4.68,15.93,4.07-3.7,8.84-6.63,14.08-8.6Z"/>
  <path class="cls-11" d="M117.64,163.22c-2.62.12-8.98.86-13.16,5.04-5.36,5.37-5.06,14.36-5.06,14.36,0,0,9,.3,14.36-5.06.1-.09.18-.2.27-.3.42-4.96,1.66-9.68,3.59-14.04Z"/>
  <path class="cls-11" d="M113.91,182.14c-2.05.4-4.45,1.12-6.66,2.45,3.38,1.79,6.06,4.24,8.02,7.34-.81-3.14-1.27-6.42-1.37-9.79Z"/>
  <g>
    <path class="cls-9" d="M361.05,303.78c-.11-1.47-.09-3.34-.59-5.01-2.7-37.55-5.39-75.1-8.09-112.65-22.25-8.14-44.04-10.14-65.59-8.59-29.81,2.14-59.14,11.06-88.47,19.9-1.19,2.93-2.69,5.7-4.46,8.27,2.51-.75,5.01-1.5,7.5-2.26,28.13-8.48,57.21-17.24,85.92-19.31h0c21.18-1.52,40.46.71,58.81,6.8l7.21,100.39c-18.45-5.42-37.77-7.32-58.74-5.82-30.17,2.17-59.97,11.15-88.79,19.84-28.13,8.48-57.21,17.24-85.91,19.3-21.18,1.52-40.47-.71-58.82-6.8l-7.21-100.39c18.45,5.42,37.77,7.32,58.75,5.82,8.47-.61,16.9-1.76,25.29-3.29-2.91-1.49-5.65-3.29-8.14-5.37-4.83.74-9.67,1.36-14.52,1.78-.23-3.42-.88-9.11-2.72-14.5-.02-.38-.06-.76-.16-1.14-3.94-15.89-22.88-13.44-34.62-12.29-18.46,1.81-31.93,9.46-31.34,17.62.07.99.09,2.16.24,3.33,2.71,37.75,5.42,75.5,8.13,113.25,22.25,8.14,44.04,10.14,65.59,8.59,57.91-4.15,113.99-33.91,171.84-38.89.16,3.19.73,9.58,2.78,15.6.02.38.06.77.16,1.14,3.94,15.89,22.88,13.44,34.62,12.29,18.46-1.81,31.93-9.47,31.34-17.62ZM104.7,200.45c1.48,2.84,2.4,6.24,2.99,9.38h0c.37,2.01.61,3.9.75,5.47,0,.01,0,.02,0,.04.05.51.09,1,.12,1.43-1.1.1-2.63.18-4.73.18-.7,0-1.44,0-2.19-.03-.24,0-.48-.01-.72-.02-.55-.02-1.1-.03-1.68-.06-.28-.01-.55-.02-.84-.03-.59-.03-1.2-.07-1.82-.1-.26-.02-.51-.03-.77-.05-.86-.06-1.75-.12-2.67-.2-.02,0-.03,0-.05,0-2.49-.2-5.16-.46-8-.79-.73-4.4-.99-7.03-1.07-8.54,3.77-1.03,11.54-3.29,20.68-6.68ZM302.7,309.42c-1.48-2.84-2.4-6.23-2.99-9.38h0c-.38-2.01-.61-3.9-.75-5.48h0c-.05-.53-.09-1.02-.12-1.46,1.1-.1,2.64-.18,4.73-.18.7,0,1.44.01,2.2.03.23,0,.47.02.7.02.56.02,1.12.04,1.7.06.27,0,.55.02.82.04.6.03,1.21.07,1.84.1.25.02.5.03.76.05.85.05,1.73.12,2.64.19.03,0,.05,0,.08,0,2.49.2,5.16.47,8.01.79.73,4.4.99,7.03,1.08,8.55-3.77,1.03-11.54,3.28-20.69,6.67Z"/>
    <path class="cls-9" d="M135.09,213.74c2.97,2.06,6.24,3.71,9.72,4.9,14.31-2.95,28.49-6.87,42.47-10.99,2.36-2.61,4.37-5.53,5.98-8.7-19.33,5.8-38.67,11.38-58.17,14.79Z"/>
  </g>
  <text class="cls-5" transform="translate(133.63 196.3) rotate(-9.81) scale(.71 1)"><tspan x="0" y="0">Aft</tspan><tspan class="cls-1" x="45.84" y="0">e</tspan><tspan x="59.85" y="0">r</tspan></text>
  <polygon class="cls-3" points="305.95 333.93 305.95 345.56 203.46 430.13 100.96 345.56 100.96 343.21 96.99 343.21 96.99 347.43 203.46 435.29 309.93 347.43 309.93 333.93 305.95 333.93"/>
  <text class="cls-4" transform="translate(165.37 363.08) scale(.71 1)"><tspan x="0" y="0">M</tspan><tspan class="cls-12" x="22.61" y="0">a</tspan><tspan x="35.95" y="0">tthew</tspan></text>
  <rect class="cls-3" x="138.63" y="350.71" width="20.33" height="1.77"/>
  <rect class="cls-3" x="248.21" y="351.48" width="20.33" height="1.77"/>
  <circle class="cls-7" cx="157.67" cy="180.99" r="33.14"/>
  <text class="cls-10" transform="translate(96.29 241.82) scale(.71 1)"><tspan x="0" y="0">THE</tspan></text>
  <text class="cls-6" transform="translate(183.75 392.33) scale(.71 1)"><tspan class="cls-2" x="0" y="0">2</tspan><tspan x="10.17" y="0">4:29</tspan></text>
</svg>