<?xml version="1.0" encoding="UTF-8"?>
<svg id="Layer_1" data-name="Layer 1" xmlns="http://www.w3.org/2000/svg" viewBox="0 0 264.27 229.68">
  <defs>
    <style>
      .cls-1 {
        font-family: WhiteSmith, 'White Smith';
        font-size: 24px;
      }

      .cls-1, .cls-2, .cls-3 {
        fill: #fff;
      }

      .cls-4 {
        letter-spacing: -.03em;
      }

      .cls-5 {
        letter-spacing: 0em;
      }

      .cls-6 {
        letter-spacing: -.06em;
      }

      .cls-7 {
        fill: none;
        stroke: #fff;
        stroke-miterlimit: 10;
      }

      .cls-8 {
        fill: #231f20;
      }

      .cls-3 {
        font-family: Blanch-Caps, Blanch;
        font-size: 20.39px;
      }

      .cls-9 {
        fill: #333;
      }

      .cls-10 {
        fill: #fbb03b;
      }
    </style>
  </defs>
  <path class="cls-10" d="M141.4,11.28c-1.31,5.6-7.23,9-7.23,9,0,0-3.79-5.68-2.48-11.28,1.31-5.6,7.23-9,7.23-9,0,0,3.79,5.68,2.48,11.28Z"/>
  <g>
    <path class="cls-10" d="M129.09,14.54c4.07,4.07,3.84,10.89,3.84,10.89,0,0-6.82.23-10.89-3.84-4.07-4.07-3.84-10.89-3.84-10.89,0,0,6.82-.23,10.89,3.84Z"/>
    <path class="cls-10" d="M143.46,28.18c-4.07,4.07-10.89,3.84-10.89,3.84,0,0-.23-6.82,3.84-10.89,4.07-4.07,10.89-3.84,10.89-3.84,0,0,.23,6.83-3.84,10.89Z"/>
  </g>
  <g>
    <path class="cls-10" d="M129.09,28.54c4.07,4.07,3.84,10.89,3.84,10.89,0,0-6.82.23-10.89-3.84-4.07-4.07-3.84-10.89-3.84-10.89,0,0,6.82-.23,10.89,3.84Z"/>
    <path class="cls-10" d="M143.46,42.19c-4.07,4.07-10.89,3.84-10.89,3.84,0,0-.23-6.82,3.84-10.89,4.07-4.07,10.89-3.84,10.89-3.84,0,0,.23,6.82-3.84,10.89Z"/>
  </g>
  <g>
    <path class="cls-10" d="M129.09,42.55c4.07,4.07,3.84,10.89,3.84,10.89,0,0-6.82.23-10.89-3.84-4.07-4.07-3.84-10.89-3.84-10.89,0,0,6.82-.23,10.89,3.84Z"/>
    <path class="cls-10" d="M143.46,56.2c-4.07,4.07-10.89,3.84-10.89,3.84,0,0-.23-6.82,3.84-10.89,4.07-4.07,10.89-3.84,10.89-3.84,0,0,.23,6.82-3.84,10.89Z"/>
  </g>
  <g>
    <path class="cls-10" d="M129.09,56.56c4.07,4.07,3.84,10.89,3.84,10.89,0,0-6.82.23-10.89-3.84-4.07-4.07-3.84-10.89-3.84-10.89,0,0,6.82-.23,10.89,3.84Z"/>
    <path class="cls-10" d="M143.46,70.21c-4.07,4.07-10.89,3.84-10.89,3.84,0,0-.23-6.82,3.84-10.89,4.07-4.07,10.89-3.84,10.89-3.84,0,0,.23,6.82-3.84,10.89Z"/>
  </g>
  <path class="cls-10" d="M143.46,84.22c-4.07,4.07-10.89,3.84-10.89,3.84,0,0-.23-6.83,3.84-10.89,4.07-4.07,10.89-3.84,10.89-3.84,0,0,.23,6.82-3.84,10.89Z"/>
  <path class="cls-10" d="M110.38,32.99c-1.09,4.66-6.02,7.5-6.02,7.5,0,0-3.16-4.73-2.07-9.39,1.09-4.66,6.02-7.5,6.02-7.5,0,0,3.16,4.73,2.06,9.39Z"/>
  <path class="cls-10" d="M100.14,35.7c3.39,3.39,3.2,9.07,3.2,9.07,0,0-5.68.19-9.07-3.2-3.39-3.39-3.2-9.07-3.2-9.07,0,0,5.68-.19,9.07,3.2Z"/>
  <path class="cls-10" d="M112.11,47.07c-3.39,3.39-9.07,3.2-9.07,3.2,0,0-.19-5.68,3.2-9.07,3.39-3.39,9.07-3.2,9.07-3.2,0,0,.19,5.68-3.2,9.07Z"/>
  <path class="cls-10" d="M100.14,47.37c3.39,3.39,3.2,9.07,3.2,9.07,0,0-5.68.19-9.07-3.2-3.39-3.39-3.2-9.07-3.2-9.07,0,0,5.68-.19,9.07,3.2Z"/>
  <path class="cls-10" d="M112.11,58.73c-3.39,3.39-9.07,3.2-9.07,3.2,0,0-.19-5.68,3.2-9.07,3.39-3.39,9.07-3.2,9.07-3.2,0,0,.19,5.68-3.2,9.07Z"/>
  <path class="cls-10" d="M100.14,59.03c3.39,3.39,3.2,9.07,3.2,9.07,0,0-5.68.19-9.07-3.2-3.39-3.39-3.2-9.07-3.2-9.07,0,0,5.68-.19,9.07,3.19Z"/>
  <path class="cls-8" d="M112.11,82.07c-3.39,3.39-9.07,3.2-9.07,3.2,0,0-.19-5.68,3.2-9.07,3.39-3.39,9.07-3.2,9.07-3.2,0,0,.19,5.68-3.2,9.07Z"/>
  <path class="cls-10" d="M84.68,50.85c-.88,3.76-4.85,6.04-4.85,6.04,0,0-2.55-3.81-1.67-7.57.88-3.76,4.85-6.05,4.85-6.05,0,0,2.55,3.81,1.67,7.57Z"/>
  <path class="cls-10" d="M76.42,53.04c2.73,2.73,2.58,7.31,2.58,7.31,0,0-4.58.15-7.31-2.58-2.73-2.73-2.58-7.31-2.58-7.31,0,0,4.58-.15,7.31,2.58Z"/>
  <path class="cls-10" d="M86.07,62.2c-2.73,2.73-7.31,2.58-7.31,2.58,0,0-.15-4.58,2.58-7.31,2.73-2.73,7.31-2.58,7.31-2.58,0,0,.15,4.58-2.58,7.31Z"/>
  <path class="cls-10" d="M76.42,62.44c2.73,2.73,2.58,7.31,2.58,7.31,0,0-4.58.15-7.31-2.58-2.73-2.73-2.58-7.31-2.58-7.31,0,0,4.58-.16,7.31,2.58Z"/>
  <path class="cls-10" d="M86.07,71.6c-2.73,2.73-7.31,2.58-7.31,2.58,0,0-.15-4.58,2.58-7.31,2.73-2.73,7.31-2.58,7.31-2.58,0,0,.15,4.58-2.58,7.31Z"/>
  <path class="cls-10" d="M76.42,71.84c2.73,2.73,2.58,7.31,2.58,7.31,0,0-4.58.15-7.31-2.58-2.73-2.73-2.58-7.31-2.58-7.31,0,0,4.58-.16,7.31,2.58Z"/>
  <path class="cls-10" d="M86.07,81c-2.73,2.73-7.31,2.58-7.31,2.58,0,0-.15-4.58,2.58-7.31,2.73-2.73,7.31-2.58,7.31-2.58,0,0,.15,4.58-2.58,7.31Z"/>
  <path class="cls-10" d="M76.42,81.25c2.73,2.73,2.58,7.31,2.58,7.31,0,0-4.58.15-7.31-2.58-2.73-2.73-2.58-7.31-2.58-7.31,0,0,4.58-.15,7.31,2.58Z"/>
  <path class="cls-10" d="M167.16,43.74c-.98,4.2-5.42,6.75-5.42,6.75,0,0-2.84-4.26-1.86-8.46.98-4.2,5.42-6.75,5.42-6.75,0,0,2.84,4.26,1.86,8.46Z"/>
  <path class="cls-10" d="M157.93,46.18c3.05,3.05,2.88,8.17,2.88,8.17,0,0-5.12.17-8.17-2.88-3.05-3.05-2.88-8.17-2.88-8.17,0,0,5.12-.17,8.17,2.88Z"/>
  <path class="cls-10" d="M168.71,56.41c-3.05,3.05-8.17,2.88-8.17,2.88,0,0-.17-5.12,2.88-8.17,3.05-3.05,8.17-2.88,8.17-2.88,0,0,.17,5.12-2.88,8.17Z"/>
  <path class="cls-10" d="M157.93,56.68c3.05,3.05,2.88,8.17,2.88,8.17,0,0-5.12.17-8.17-2.88-3.05-3.05-2.88-8.17-2.88-8.17,0,0,5.12-.17,8.17,2.88Z"/>
  <path class="cls-10" d="M168.71,66.92c-3.05,3.05-8.17,2.88-8.17,2.88,0,0-.17-5.12,2.88-8.17,3.05-3.05,8.17-2.88,8.17-2.88,0,0,.17,5.12-2.88,8.17Z"/>
  <path class="cls-10" d="M157.93,67.19c3.05,3.05,2.88,8.17,2.88,8.17,0,0-5.12.17-8.17-2.88-3.05-3.05-2.88-8.17-2.88-8.17,0,0,5.12-.17,8.17,2.88Z"/>
  <path class="cls-10" d="M168.71,77.43c-3.05,3.05-8.17,2.88-8.17,2.88,0,0-.17-5.12,2.88-8.17,3.05-3.05,8.17-2.88,8.17-2.88,0,0,.17,5.12-2.88,8.17Z"/>
  <path class="cls-10" d="M157.93,77.7c3.05,3.05,2.88,8.17,2.88,8.17,0,0-5.12.17-8.17-2.88-3.05-3.05-2.88-8.17-2.88-8.17,0,0,5.12-.17,8.17,2.88Z"/>
  <path class="cls-10" d="M189.94,62.59c-.79,3.39-4.38,5.45-4.38,5.45,0,0-2.29-3.43-1.5-6.82.79-3.39,4.37-5.45,4.37-5.45,0,0,2.29,3.43,1.5,6.82Z"/>
  <path class="cls-10" d="M182.5,64.56c2.46,2.46,2.32,6.58,2.32,6.58,0,0-4.13.14-6.59-2.32-2.46-2.46-2.32-6.59-2.32-6.59,0,0,4.13-.14,6.59,2.32Z"/>
  <path class="cls-10" d="M191.19,72.82c-2.46,2.46-6.59,2.32-6.59,2.32,0,0-.13-4.13,2.32-6.59,2.46-2.46,6.59-2.32,6.59-2.32,0,0,.14,4.13-2.32,6.59Z"/>
  <path class="cls-10" d="M182.5,73.03c2.46,2.46,2.32,6.59,2.32,6.59,0,0-4.13.14-6.59-2.32-2.46-2.46-2.32-6.59-2.32-6.59,0,0,4.13-.14,6.59,2.32Z"/>
  <path class="cls-10" d="M191.19,81.29c-2.46,2.46-6.59,2.32-6.59,2.32,0,0-.13-4.13,2.32-6.59,2.46-2.46,6.59-2.32,6.59-2.32,0,0,.14,4.13-2.32,6.59Z"/>
  <path class="cls-10" d="M192.62,87.61c.96-2.17.88-4.43.88-4.43,0,0-4.13-.14-6.59,2.32-.43.44-.79.92-1.07,1.43,2.3.13,4.55.36,6.78.68Z"/>
  <path class="cls-9" d="M189.21,167.89c-8.08,0-12.95-3.11-14.47-9.25-.05-.23-.1-.46-.13-.7-.54-1.7-.89-3.42-1.11-4.93-13.06,1.55-26.24,5.52-39.03,9.37-14.68,4.42-29.85,8.99-45.21,10.09-2.35.17-4.68.25-6.94.25-3.33,0-6.57-.18-9.75-.55v8.5l59.39,49.01,59.39-49.01v-12.84c-.7.04-1.41.06-2.14.06Z"/>
  <path class="cls-2" d="M173.71,92.55c-29.5,2.12-58.09,16.96-87.59,19.07-10.8.78-21.72-.15-32.85-4.04,1.32,18.36,2.63,36.72,3.95,55.08,11.13,3.88,22.05,4.81,32.85,4.04,29.5-2.12,58.09-16.96,87.59-19.07,10.8-.78,21.72.15,32.85,4.03-1.32-18.36-2.63-36.72-3.95-55.08-11.13-3.88-22.05-4.81-32.85-4.03h0Z"/>
  <path class="cls-10" d="M179.58,86.8c.35,0,.71-.02,1.06-.02,1.39,0,2.76.04,4.12.1-.15-1.41-.64-3.75-2.26-5.37-2.46-2.46-6.59-2.32-6.59-2.32,0,0-.14,4.13,2.32,6.59.41.41.87.74,1.35,1.02Z"/>
  <path class="cls-10" d="M158.69,89.1c-.23-.31-.47-.62-.76-.9-3.05-3.05-8.17-2.88-8.17-2.88,0,0-.09,2.8,1.1,5.5,2.6-.63,5.21-1.21,7.83-1.72Z"/>
  <path class="cls-10" d="M169.14,87.46c2.6-3.08,2.45-7.7,2.45-7.7,0,0-5.12-.17-8.17,2.88-1.8,1.8-2.48,4.32-2.73,6.08,2.81-.51,5.62-.94,8.45-1.26Z"/>
  <path class="cls-10" d="M73.9,92.16c1.37,0,2.64.1,3.82.27-.34-.63-.76-1.24-1.3-1.78-2.73-2.73-7.31-2.58-7.31-2.58,0,0-.07,2.09.73,4.28,1.29-.11,2.65-.2,4.06-.2Z"/>
  <path class="cls-9" d="M108.42,71.87c-11.21,0-20.29,9.08-20.29,20.29s9.08,20.29,20.29,20.29,20.29-9.08,20.29-20.29-9.08-20.29-20.29-20.29Z"/>
  <path class="cls-10" d="M132.66,89.5h-1.04c-.52,0-.95.38-.95.85.05.59.08,1.19.08,1.79s-.03,1.2-.08,1.79v2.54c.98-.29,1.96-.59,2.94-.88v-5.24c0-.47-.43-.85-.95-.85Z"/>
  <path class="cls-10" d="M129.09,70.57c-4.07-4.07-10.89-3.84-10.89-3.84,0,0-.09,2.75.88,5.8,3.52,1.92,6.46,4.76,8.52,8.19,2.86.82,5.33.74,5.33.74,0,0,.23-6.82-3.84-10.89Z"/>
  <path class="cls-10" d="M108.43,69.82c1.33,0,2.62.12,3.88.34,3.16-3.41,2.98-8.83,2.98-8.83,0,0-5.68-.19-9.07,3.2-1.72,1.72-2.51,4.03-2.88,5.88,1.63-.38,3.34-.59,5.09-.59Z"/>
  <path class="cls-10" d="M100.62,71.24c-.15-.18-.31-.36-.48-.53-3.39-3.39-9.07-3.2-9.07-3.2,0,0-.15,4.71,2.38,8.11,2.07-1.88,4.5-3.38,7.17-4.38Z"/>
  <path class="cls-10" d="M88.03,83.11c-1.33.06-4.57.44-6.7,2.56-2.73,2.73-2.58,7.31-2.58,7.31,0,0,4.58.15,7.31-2.58.05-.05.09-.1.14-.15.21-2.52.85-4.93,1.83-7.15Z"/>
  <path class="cls-9" d="M211.98,154.68c-.05-.75-.04-1.7-.3-2.55-1.37-19.12-2.74-38.24-4.12-57.36-11.33-4.15-22.42-5.16-33.4-4.38-15.18,1.09-30.12,5.63-45.05,10.13-.61,1.49-1.37,2.9-2.27,4.21,1.28-.38,2.55-.77,3.82-1.15,14.32-4.32,29.13-8.78,43.75-9.83h0c10.78-.77,20.6.36,29.94,3.46l3.67,51.12c-9.39-2.76-19.23-3.73-29.91-2.96-15.36,1.1-30.54,5.68-45.21,10.1-14.32,4.32-29.13,8.78-43.74,9.83-10.79.77-20.61-.36-29.95-3.46l-3.67-51.12c9.39,2.76,19.23,3.73,29.91,2.96,4.31-.31,8.61-.9,12.88-1.67-1.48-.76-2.87-1.67-4.15-2.73-2.46.38-4.92.69-7.39.91-.12-1.74-.45-4.64-1.38-7.38,0-.19-.03-.39-.08-.58-2.01-8.09-11.65-6.84-17.63-6.26-9.4.92-16.26,4.82-15.96,8.97.04.5.04,1.1.12,1.69,1.38,19.22,2.76,38.44,4.14,57.67,11.33,4.14,22.42,5.16,33.4,4.37,29.49-2.12,58.04-17.27,87.5-19.8.08,1.62.37,4.88,1.42,7.94,0,.2.03.39.08.58,2,8.09,11.65,6.84,17.63,6.26,9.4-.92,16.26-4.82,15.96-8.97ZM81.44,102.07c.75,1.45,1.22,3.18,1.52,4.78h0c.19,1.02.31,1.98.38,2.79,0,0,0,.01,0,.02.02.26.04.51.06.73-.56.05-1.34.09-2.41.09-.36,0-.73,0-1.12-.01-.12,0-.24,0-.37-.01-.28,0-.56-.02-.86-.03-.14,0-.28-.01-.43-.02-.3-.02-.61-.03-.93-.05-.13,0-.26-.02-.39-.03-.44-.03-.89-.06-1.36-.1,0,0-.02,0-.03,0-1.27-.1-2.62-.24-4.08-.4-.37-2.24-.51-3.58-.55-4.35,1.92-.52,5.87-1.67,10.53-3.4ZM182.26,157.55c-.75-1.44-1.22-3.17-1.52-4.77h0c-.19-1.03-.31-1.99-.38-2.79h0c-.03-.27-.05-.52-.06-.75.56-.05,1.34-.09,2.41-.09.36,0,.73,0,1.12.02.12,0,.24,0,.36.01.28,0,.57.02.86.03.14,0,.28.01.42.02.3.01.62.03.94.05.13,0,.26.01.39.03.43.03.88.06,1.34.1.01,0,.03,0,.04,0,1.27.1,2.63.24,4.08.4.37,2.24.51,3.58.55,4.35-1.92.52-5.88,1.67-10.53,3.4Z"/>
  <path class="cls-9" d="M96.92,108.84c1.51,1.05,3.18,1.89,4.95,2.5,7.29-1.5,14.51-3.5,21.62-5.6,1.2-1.33,2.23-2.82,3.04-4.43-9.84,2.95-19.69,5.79-29.62,7.53Z"/>
  <path class="cls-10" d="M86.14,92.75c-1.04.21-2.27.57-3.39,1.25,1.72.91,3.09,2.16,4.09,3.74-.41-1.6-.65-3.27-.7-4.99Z"/>
  <text class="cls-1" transform="translate(99.83 101.88) rotate(-8.96) scale(.71 1)"><tspan x="0" y="0">The</tspan></text>
  <polygon class="cls-2" points="183.92 170.03 183.92 175.96 131.73 219.02 79.54 175.96 79.54 174.76 77.52 174.76 77.52 176.91 131.73 221.65 185.95 176.91 185.95 170.03 183.92 170.03"/>
  <text class="cls-3" transform="translate(115.94 185.47) scale(.71 1)"><tspan x="0" y="0">M</tspan><tspan class="cls-4" x="9.81" y="0">a</tspan><tspan class="cls-5" x="15.6" y="0">tthew </tspan></text>
  <rect class="cls-2" x="98.72" y="179.58" width="10.35" height=".9"/>
  <rect class="cls-2" x="154.52" y="179.48" width="10.35" height=".9"/>
  <circle class="cls-7" cx="108.42" cy="92.16" r="16.87"/>
  <g>
    <path class="cls-8" d="M61.03,141.07c1.24.32,1.85.47,3.08.74.35,3.38,1.82,4.29,2.49,4.45.54.13,1.37-.07,1.19-1.76-.32-3.14-6.53-3.17-7.59-13.44-.61-5.96,1.43-8.08,3.05-7.76,1.39.28,2.9,1.6,3.86,4.73-.07-1.34-.11-2.01-.18-3.36,1.13.17,1.69.25,2.82.38.42,4.04.62,6.07,1.04,10.11-1.18-.14-1.78-.22-2.97-.41-.31-2.98-1.43-4.82-2.59-5.03-.48-.09-1.06.51-.92,1.92.43,4.15,6.83,4.2,7.81,13.67.65,6.29-1.51,8.26-3.47,7.92-1.66-.28-3.01-2.42-3.83-4.38.06,1.23.08,1.84.14,3.06-1.16-.25-1.74-.39-2.9-.7-.42-4.06-.63-6.09-1.05-10.15Z"/>
    <path class="cls-8" d="M80.66,125.61c.37,3.56.55,5.34.92,8.9-1.12.01-1.68,0-2.8-.01-.15-1.43-.22-2.15-.37-3.59-1.04-.02-1.56-.04-2.6-.09.23,2.22.34,3.34.57,5.56,1.23.06,1.85.08,3.08.1.22,2.14.33,3.22.55,5.36-1.23-.02-1.85-.04-3.08-.1.27,2.63.41,3.94.68,6.57,1.04.05,1.56.07,2.6.09-.15-1.5-.23-2.25-.39-3.75,1.12.02,1.68.03,2.8.01.38,3.64.56,5.46.94,9.11-3.89.04-5.85-.04-9.79-.45-.22-2.14-.33-3.22-.55-5.36.41.04.62.06,1.03.1-.72-6.99-1.08-10.49-1.8-17.49-.41-.04-.62-.06-1.03-.1-.22-2.13-.33-3.19-.55-5.32,3.94.41,5.9.49,9.79.45Z"/>
    <path class="cls-8" d="M94.22,147.99c-.77,3.15-2.16,6-4.26,6.16-3.4.26-6.24-5.21-7.17-14.2-.95-9.27,1.26-14.89,3.37-15.04,1.61-.11,2.56,2.07,2.75,2.54.05-.92.08-1.37.14-2.29,1.01-.1,1.51-.15,2.51-.27.47,4.58.71,6.87,1.18,11.44-1.14.13-1.72.19-2.86.3-.32-2.62-1.08-5.02-2.22-4.94-1.15.09-1.54,3.71-1.09,8.1.41,3.99,1.6,7.54,3.12,7.42,1.35-.11,2.04-3.76,2.14-4.18.96,1.99,1.44,2.98,2.4,4.95Z"/>
    <path class="cls-8" d="M93.75,138.75c-.9-8.7.79-14.97,4.07-15.53,3.89-.66,6.3,4.84,7.24,13.91.94,9.11-.48,15.12-4.07,15.73-3.32.57-6.2-4.03-7.24-14.11ZM101.1,137.9c-.5-4.88-1.45-8.66-2.65-8.48-.95.14-1.28,3.77-.76,8.77.54,5.28,1.64,8.51,2.65,8.33,1-.17,1.27-3.63.76-8.63Z"/>
    <path class="cls-8" d="M115.8,125.29c.95,9.19,1.42,13.78,2.37,22.97-1.35.36-2.03.54-3.38.88-2.24-5.73-3.36-8.61-5.6-14.37.42,4.06.63,6.09,1.05,10.15.49-.11.73-.17,1.21-.29.21,2.08.32,3.12.54,5.2-1.94.46-2.91.69-4.85,1.1-.21-2.08-.32-3.12-.54-5.2.37-.08.56-.12.93-.2-.73-7.11-1.1-10.66-1.83-17.77-.37.08-.55.12-.92.2-.21-2.08-.32-3.12-.54-5.2,1.82-.39,2.72-.59,4.53-1.02,2.16,5.55,3.23,8.31,5.38,13.83-.4-3.84-.59-5.75-.99-9.59-.43.11-.64.16-1.07.27-.21-2.08-.32-3.12-.54-5.2,1.9-.48,2.84-.73,4.74-1.24.21,2.08.32,3.12.54,5.2-.42.11-.62.17-1.04.28Z"/>
    <path class="cls-8" d="M119.43,142.41c.39-.11.58-.16.97-.27-.72-6.99-1.08-10.49-1.8-17.49-.39.11-.58.16-.97.27-.22-2.13-.33-3.19-.55-5.32,1.92-.52,2.88-.79,4.79-1.34,3.8-1.09,6.58,4.27,7.37,11.96.95,9.19-.67,15.11-4.53,16.22-1.89.54-2.84.81-4.73,1.32-.22-2.14-.33-3.22-.55-5.36ZM124.22,141.07c1.66-.56,1.93-4.75,1.42-9.78-.44-4.31-1.55-8.18-3.22-7.7-.24.07-.36.1-.6.17.72,6.99,1.08,10.49,1.8,17.49.24-.07.36-.1.6-.17Z"/>
    <path class="cls-8" d="M144.83,135.41c-.76,3.32-2.12,6.44-4.17,7.03-3.33.96-6.1-3.86-7.03-12.84-.95-9.27,1.19-15.63,3.24-16.22,1.57-.46,2.51,1.6,2.7,2.04.05-.94.08-1.42.13-2.36.99-.28,1.48-.42,2.47-.7.47,4.58.71,6.87,1.18,11.44-1.12.31-1.69.47-2.81.8-.32-2.61-1.07-4.92-2.19-4.6-1.13.33-1.5,4.13-1.05,8.52.41,3.99,1.58,7.34,3.07,6.91,1.32-.38,1.99-4.22,2.09-4.66.95,1.85,1.42,2.78,2.37,4.64Z"/>
    <path class="cls-8" d="M144.35,126.09c-.9-8.7.75-15.35,4-16.19,3.86-.99,6.27,4.54,7.2,13.6.94,9.11-.48,15.11-4.04,16.02-3.29.85-6.13-3.37-7.17-13.44ZM151.61,124.46c-.5-4.88-1.44-8.63-2.64-8.34-.94.22-1.26,3.93-.75,8.92.54,5.28,1.63,8.43,2.63,8.17.99-.26,1.26-3.75.75-8.75Z"/>
    <path class="cls-8" d="M166.45,114.12c.06,1.83.11,4.53.09,5.47-.02,6.37-.03,9.56-.05,15.94-1.33.22-1.99.34-3.32.6-1.37-6.29-2.06-9.44-3.43-15.72-.15-.67-.59-2.92-.85-4.93-.03,0-.04,0-.06.01.65,6.35.98,9.52,1.63,15.87.36-.07.54-.11.9-.18.21,2.08.32,3.12.54,5.2-1.72.34-2.57.53-4.29.92-.21-2.08-.32-3.12-.54-5.2.34-.08.51-.12.85-.19-.73-7.11-1.1-10.66-1.83-17.77-.34.07-.5.11-.84.19-.21-2.08-.32-3.12-.54-5.2,2.39-.54,3.59-.8,6-1.25,1.26,5.91,1.89,8.86,3.15,14.78-.01-6.14-.02-9.2-.03-15.33,2.42-.4,3.64-.58,6.07-.86.21,2.08.32,3.12.54,5.2-.35.04-.53.06-.88.11.73,7.09,1.1,10.64,1.83,17.73.35-.04.53-.06.88-.11.22,2.1.32,3.14.54,5.24-2.02.24-3.03.38-5.04.69-.22-2.1-.32-3.14-.54-5.24.36-.06.53-.08.89-.14-.55-5.38-.83-8.07-1.39-13.46-.1-.95-.15-1.43-.24-2.38-.03,0-.04,0-.06,0Z"/>
    <path class="cls-8" d="M176.05,105.93c.22,2.13.33,3.19.55,5.32-.4.02-.6.04-1,.06.72,6.99,1.08,10.49,1.8,17.49.4-.03.6-.04,1-.06.22,2.14.33,3.22.55,5.36-2.13.13-3.2.22-5.32.45-.22-2.14-.33-3.22-.55-5.36.4-.04.6-.07,1.01-.11-.72-6.99-1.08-10.49-1.8-17.49-.4.04-.6.06-1.01.11-.22-2.13-.33-3.19-.55-5.32,2.12-.23,3.19-.32,5.32-.45Z"/>
    <path class="cls-8" d="M188.72,111.2c.95,9.19,1.42,13.78,2.37,22.97-1.4-.11-2.1-.14-3.49-.19-2.29-6.2-3.43-9.28-5.71-15.4.42,4.06.63,6.09,1.05,10.15.5,0,.75,0,1.24,0,.21,2.08.32,3.12.54,5.2-1.99,0-2.98.02-4.95.12-.21-2.08-.32-3.12-.54-5.2.38-.02.57-.03.95-.04-.73-7.11-1.1-10.66-1.83-17.77-.37.02-.56.02-.93.04-.21-2.08-.32-3.12-.54-5.2,1.85-.09,2.77-.12,4.63-.12,2.19,5.91,3.29,8.89,5.49,14.87-.4-3.84-.59-5.75-.99-9.59-.44-.02-.66-.03-1.1-.04-.21-2.08-.32-3.12-.54-5.2,1.95.06,2.93.12,4.9.29.21,2.08.32,3.12.54,5.2-.43-.04-.65-.06-1.08-.09Z"/>
    <path class="cls-8" d="M200.34,132.92c-.21,1.42-1.09,2.63-2.35,2.42-2.88-.47-5.71-6.15-6.61-14.85-.9-8.78.94-14.59,3.5-14.18,2.38.38,3.23,3.27,3.56,3.97.02-1.13.03-1.7.05-2.83.98.21,1.48.32,2.47.56.49,4.75.73,7.13,1.22,11.89-1.19-.29-1.78-.42-2.96-.66-.39-3.27-1.43-5.3-2.41-5.47-1.33-.24-1.89,3.18-1.47,7.21.42,4.11,1.58,7.53,3.02,7.78.94.17,1.24-.68,1.38-1.68-.07-.68-.1-1.02-.17-1.69-.4-.08-.6-.12-1.01-.19-.18-1.72-.27-2.59-.44-4.31,2.19.4,3.29.65,5.49,1.22.18,1.72.27,2.59.44,4.31-.27-.07-.4-.1-.66-.17.42,4.03.62,6.04,1.04,10.07-1.33-.33-1.99-.48-3.31-.75-.31-1.06-.46-1.59-.77-2.64Z"/>
  </g>
  <text class="cls-3" transform="translate(124.45 199.56) scale(.58 1)"><tspan class="cls-6" x="0" y="0">2</tspan><tspan x="5.18" y="0">4:29</tspan></text>
</svg>